<svg width="1000" height="1000" viewBox="0 0 1000 1000" fill="none" xmlns="http://www.w3.org/2000/svg">
<path d="M437.452 155.277C442.718 154.682 441.317 154.044 445.023 156.316C447.63 165.394 446.163 178.952 445.88 189.002C285.772 219.043 173.651 331.703 142.927 491.695L117.996 491.325C112.738 491.364 113.337 492.157 109.494 489.868C108.444 480.27 113.075 464.931 115.571 455.523C157.356 297.946 277.752 184.736 437.452 155.277Z" fill="#E9A409"/>
<path d="M651.459 179.993C674.181 188.397 705.467 206.39 724.87 220.68C817.311 288.763 873.39 379.344 891.967 491.833C883.306 491.92 864.688 492.908 857.567 489.42L855.977 484.372C834.679 350.138 730.178 240.07 602.759 198.652C624.662 195.576 633.475 191.654 651.459 179.993Z" fill="#E9A409"/>
<path d="M550.673 65.3042C604.584 57.747 599.768 88.6389 624.52 97.0368C642.623 103.178 665.372 87.0667 700.192 105.531C675.795 117.379 668.585 123.896 647.405 141.032C597.683 180.251 588.499 123.853 526.984 161.512L526.862 66.5455C534.768 66.4568 542.775 65.8235 550.673 65.3042Z" fill="#E9A409"/>
<path d="M108.091 609.029L142.726 608.635C152.902 687.401 196.968 762.999 252.293 818.806L242.077 839.635C240.341 844.016 239.969 846.481 236.013 848.831C234.956 848.625 233.175 848.359 232.349 847.565C168.589 786.274 118.549 697.167 108.091 609.029Z" fill="#E9A409"/>
<path d="M857.295 609.018L891.948 608.773C878.498 701.837 839.504 772.753 776.155 840.446L764.612 851.649L749.334 818.948C809.198 760.859 842.944 690.4 857.295 609.018Z" fill="#E9A409"/>
<path d="M499.439 475.167C499.629 475.181 499.847 475.207 500.093 475.245C500.34 475.284 500.614 475.335 500.916 475.399C501.217 475.462 501.545 475.538 501.899 475.625C502.076 475.669 502.26 475.715 502.451 475.765C503.211 475.963 504.075 476.206 505.034 476.493C508.869 477.642 514.233 479.481 520.665 481.811C527.901 484.432 536.488 487.676 545.774 491.259C554.027 494.444 562.832 497.896 571.728 501.419C580.624 504.942 589.611 508.536 598.23 512C602.539 513.732 606.756 515.432 610.824 517.076C623.026 522.005 633.882 526.422 641.84 529.658C644.493 530.736 646.824 531.683 648.775 532.474C650.726 533.265 652.298 533.9 653.432 534.354C653.476 535.674 653.523 536.998 653.573 538.322C653.622 539.646 653.675 540.972 653.73 542.299C653.841 544.954 653.962 547.616 654.094 550.284C655.415 576.961 657.774 604.258 660.476 631.74C661.016 637.236 661.57 642.74 662.132 648.247C662.413 651.001 662.697 653.757 662.981 656.512C663.834 664.778 664.699 673.05 665.557 681.315C665.843 684.069 666.128 686.824 666.412 689.576C666.979 695.083 667.541 700.585 668.091 706.078C670.291 728.052 672.308 749.896 673.783 771.389C673.967 774.076 674.142 776.758 674.309 779.433C674.643 784.783 674.939 790.111 675.194 795.41C618.613 780.024 557.188 761.578 500.759 747.759C443.572 764.571 383.275 780.175 325.642 795.878C334.2 716.121 344.394 613.947 348.484 534.831C397.884 516.902 448.89 493.868 498.783 475.196C498.935 475.156 499.154 475.147 499.439 475.167ZM501.447 552.923C491.797 564.516 482.368 576.291 473.162 588.241C472.938 628.396 471.532 669.067 471.585 708.951L501.083 708.942L530.23 708.934C530.653 669.921 528.678 627.435 528.61 587.648C519.433 576.169 510.378 564.594 501.447 552.923Z" fill="url(#paint0_linear_24_25)"/>
<path d="M441.862 286.318C461.592 278.621 481.371 271.052 501.197 263.607C501.213 318.98 500.583 376.687 501.612 431.935C496.813 433.257 490.915 435.56 486.237 437.413C428.517 460.26 371.491 485.788 313.281 507.33L325.619 332.843C344.408 325.164 365.976 316.597 385.064 310.166C385.908 331.453 385.435 356.24 385.705 377.911L441.723 354.799L441.862 286.318Z" fill="#F0E2CD"/>
<path d="M501.196 263.607C519.556 270.719 542.335 280.238 560.622 286.389L560.712 354.88C579.23 362.366 598.186 370.282 616.767 377.475L616.405 310.088C636.73 317.224 656.419 325.128 676.437 333.057L688.461 506.926C627.685 483.354 561.735 453.664 501.611 431.935C500.582 376.687 501.212 318.98 501.196 263.607Z" fill="#D4C3AD"/>
<path d="M294.293 833.371C360.954 817.712 434.599 796.084 500.942 777.583C501.095 787.462 503.066 843.859 499.895 849.019C420.942 872.124 333.208 897.426 254.273 918.058C267.01 889.968 281.051 861.312 294.293 833.371Z" fill="#EFE1CC"/>
<path d="M500.942 777.583C569.744 795.269 638.014 816.075 707.038 833.46C720.524 861.5 733.678 889.696 746.498 918.045L578.354 870.37C561.417 865.601 514.643 851.381 499.896 849.019C503.066 843.859 501.096 787.462 500.942 777.583Z" fill="#D3C2AC"/>
<path d="M522.483 894.546C572.058 906.194 623.176 920.023 672.66 932.325C695.469 937.997 750.344 951.062 768.865 959.496C748.334 961.282 706.205 960.162 684.428 960.134L522.543 959.933L522.483 894.546Z" fill="#4E5256"/>
<path d="M473.763 894.563L476.943 894.546C481.453 899.397 479.309 948.972 479.202 958.289L239.459 958.567L235.362 957.765C242.018 950.96 449.135 900.691 473.763 894.563Z" fill="#4E5256"/>
<path d="M53.1711 531.948C101.511 531.563 149.855 531.636 198.194 532.168C198.154 543.558 198.465 557.871 197.229 568.957C149.153 568.558 101.076 568.587 53 569.043L53.1711 531.948Z" fill="#E9A409"/>
<path d="M488.493 39.5041C497.141 38.6617 505.836 39.0829 514.525 39.2919C514.943 60.9959 516.234 228.051 513.451 236.043L510.775 235.807C499.735 230.424 498.546 232.208 487.435 237.444L487.291 101.44C487.282 90.2142 486.466 48.1822 488.493 39.5041Z" fill="#E9A409"/>
<path d="M802.725 532.039C849.453 530.964 899.843 531.723 946.764 531.962C946.837 539.387 947.947 564.364 944.618 569.116C900.328 567.439 847.545 568.921 802.573 569.047L802.725 532.039Z" fill="#E9A409"/>
<defs>
<linearGradient id="paint0_linear_24_25" x1="502" y1="635.139" x2="501.5" y2="635.139" gradientUnits="userSpaceOnUse">
<stop stop-color="#D4C3AD"/>
<stop offset="1" stop-color="#F0E2CD"/>
</linearGradient>
</defs>
</svg>
