<svg width="1456" height="475" viewBox="0 0 1456 475" fill="none" xmlns="http://www.w3.org/2000/svg">
<path d="M198.17 59.9362C200.884 59.6293 200.162 59.3004 202.072 60.4716C203.416 65.1513 202.66 72.1398 202.514 77.3198C119.985 92.8051 62.1905 150.877 46.3539 233.346L33.5028 233.155C30.7924 233.176 31.101 233.585 29.1204 232.404C28.5791 227.457 30.9663 219.55 32.2529 214.701C53.7913 133.476 115.85 75.1211 198.17 59.9362Z" fill="#C78E46"/>
<path d="M308.482 72.676C320.194 77.0081 336.32 86.2826 346.322 93.649C393.972 128.743 422.878 175.434 432.454 233.417C427.99 233.462 418.393 233.971 414.722 232.173L413.902 229.572C402.924 160.379 349.058 103.643 283.379 82.2941C294.669 80.7084 299.211 78.6868 308.482 72.676Z" fill="#C78E46"/>
<path d="M256.53 13.5588C284.319 9.66336 281.837 25.5869 294.595 29.9157C303.927 33.0814 315.653 24.7765 333.602 34.2942C321.026 40.4013 317.309 43.7605 306.392 52.5935C280.762 72.8091 276.028 43.7385 244.319 63.1502L244.257 14.1986C248.332 14.1529 252.459 13.8264 256.53 13.5588Z" fill="#C78E46"/>
<path d="M28.3979 293.827L46.2511 293.624C51.4965 334.225 74.2105 373.193 102.728 401.959L97.4626 412.695C96.5678 414.954 96.376 416.224 94.3366 417.435C93.792 417.329 92.8736 417.192 92.4482 416.783C59.5822 385.19 33.7886 339.259 28.3979 293.827Z" fill="#C78E46"/>
<path d="M414.582 293.822L432.444 293.695C425.511 341.666 405.411 378.22 372.757 413.113L366.807 418.888L358.932 402.032C389.79 372.09 407.184 335.771 414.582 293.822Z" fill="#C78E46"/>
<path d="M229.783 224.841C230.514 224.651 234.292 225.824 239.846 227.812C240.639 228.096 241.469 228.397 242.331 228.713C263.027 236.289 302.48 252.526 309.499 255.335C310.922 298.222 318.378 344.713 320.613 387.847C320.649 388.532 320.683 389.216 320.716 389.899C318.893 389.403 317.061 388.901 315.22 388.394C288.524 381.042 260.038 372.598 233.536 366.011C232.622 365.784 231.711 365.559 230.802 365.337C201.324 374.002 170.243 382.046 140.536 390.14C144.947 349.029 150.203 296.362 152.311 255.581C177.774 246.339 204.066 234.465 229.783 224.841ZM231.156 264.907C226.182 270.883 221.322 276.953 216.576 283.112C216.461 303.811 215.736 324.775 215.764 345.334L230.969 345.329L245.993 345.325C246.211 325.215 245.193 303.315 245.158 282.806C240.428 276.889 235.76 270.923 231.156 264.907Z" fill="url(#paint0_linear_2_502)"/>
<path d="M200.442 127.483C210.612 123.515 220.808 119.613 231.027 115.776C231.036 144.319 230.711 174.064 231.241 202.542C228.768 203.224 225.727 204.411 223.316 205.366C193.563 217.143 164.169 230.301 134.164 241.406L140.524 151.465C150.209 147.506 161.326 143.09 171.165 139.775C171.6 150.748 171.356 163.525 171.496 174.695L200.371 162.782L200.442 127.483Z" fill="#F0E2CD"/>
<path d="M231.027 115.776C240.491 119.442 252.233 124.349 261.659 127.519L261.706 162.824C271.251 166.682 281.022 170.763 290.6 174.471L290.413 139.735C300.89 143.413 311.039 147.488 321.357 151.575L327.555 241.197C296.227 229.047 262.233 213.743 231.241 202.542C230.711 174.064 231.036 144.319 231.027 115.776Z" fill="#D4C3AD"/>
<path d="M124.377 409.467C158.738 401.395 196.699 390.247 230.896 380.71C230.975 385.802 231.991 414.873 230.356 417.533C189.659 429.442 144.436 442.484 103.748 453.119C110.314 438.64 117.551 423.869 124.377 409.467Z" fill="#F0E2CD"/>
<path d="M230.896 380.71C266.361 389.827 301.551 400.551 337.13 409.512C344.082 423.966 350.862 438.5 357.47 453.113L270.799 428.538C262.068 426.08 237.958 418.75 230.356 417.533C231.991 414.873 230.975 385.802 230.896 380.71Z" fill="#D4C3AD"/>
<path d="M242 441C267.554 447.004 293.903 454.132 319.41 460.474C331.168 463.397 359.453 470.131 369 474.479C358.417 475.4 336.701 474.823 325.476 474.808L242.031 474.704L242 441Z" fill="#373B3F"/>
<path d="M216.886 441.008L218.525 441C220.85 443.5 219.745 469.055 219.69 473.857L96.1116 474L94 473.587C97.4307 470.079 204.191 444.167 216.886 441.008Z" fill="#373B3F"/>
<path d="M0.0881733 254.095C25.0057 253.896 49.9249 253.934 74.8416 254.208C74.8212 260.079 74.9812 267.457 74.3444 273.172C49.5632 272.966 24.7812 272.981 0 273.216L0.0881733 254.095Z" fill="#C78E46"/>
<path d="M224.48 0.259822C228.937 -0.174361 233.42 0.0427283 237.898 0.150458C238.114 11.338 238.779 97.4481 237.345 101.568L235.965 101.446C230.275 98.6714 229.662 99.5912 223.935 102.29L223.86 32.1853C223.855 26.3989 223.435 4.73304 224.48 0.259822Z" fill="#C78E46"/>
<path d="M386.453 254.142C410.54 253.588 436.514 253.979 460.7 254.102C460.737 257.93 461.31 270.804 459.593 273.253C436.763 272.389 409.556 273.153 386.375 273.218L386.453 254.142Z" fill="#C78E46"/>
<path d="M869.417 114.758C885.452 114.56 901.755 114.705 917.806 114.7L943.188 229.891C954.079 197.609 965.304 148.175 973.909 114.65L1020.44 114.716C1030.76 149.718 1041.48 193.864 1050.24 229.573C1051.3 226.365 1052.35 222.143 1053.04 218.82C1060.19 184.121 1069.31 149.449 1076.02 114.685L1123.61 114.678C1121.21 127.282 1116.82 143.073 1113.66 155.766C1102.02 201.175 1090.7 246.668 1079.72 292.241L1025.6 292.055L996.817 187.673C986.898 222.458 977.346 257.347 968.162 292.332C950.74 291.703 931.097 292.131 913.511 292.13C910.483 275.659 904.049 252.506 899.902 235.686L869.417 114.758Z" fill="#F0E2CD"/>
<path d="M732.939 114.893C745.953 114.091 820.708 113.184 828.768 116.327C836.303 119.261 850.273 133.014 853.13 140.535C855.783 147.552 854.967 247.158 854.085 260.794C853.914 263.526 853.636 266.307 852.346 268.769C847.668 277.649 835.161 289.002 825.625 291.897C813.069 292.918 734.032 293.651 727.011 289.956C719.77 286.142 706.348 274.21 704.032 266.403C701.627 258.3 702.315 162.786 703.23 148.829C703.473 145.112 703.714 140.239 705.635 136.956C710.727 128.253 723.297 117.609 732.939 114.893ZM807.191 156.987C801.354 154.132 759.423 155.422 750.369 155.578C749.479 156.713 748.287 158.449 748.247 159.945C747.512 185.431 748.018 211.015 747.912 236.523C747.887 240.602 747.822 248.139 750.908 250.841C756.508 252.257 800.454 252.337 806.521 251.482C807.435 250.475 809.02 248.617 809.069 247.206C810 220.623 809.46 193.854 809.419 167.237C809.419 164.207 808.824 159.561 807.191 156.987Z" fill="#F0E2CD"/>
<path d="M1304.5 114.696C1321.44 114.684 1417.81 112.738 1426.96 116.104C1435.1 119.097 1447.6 130.853 1450.98 138.894C1453.63 145.192 1453.56 194.508 1452.75 203.417C1452.48 206.457 1451.75 209.439 1450.58 212.258C1445.87 223.396 1435.73 230.966 1424.75 235.266C1434.41 254.331 1444.8 273.058 1454.55 292.104C1445.51 292.294 1435.98 292.099 1426.9 292.056L1406.07 292.167L1378.28 236.219L1350.56 236.268L1350.39 292.14L1304.71 292.01C1303.21 235.147 1304.66 172.062 1304.5 114.696ZM1403.63 156.447C1386.81 154.447 1367.73 155.362 1350.57 155.446C1350.53 169.331 1350.33 183.479 1350.46 197.34C1359.27 197.352 1400.93 198.417 1405.46 195.969L1406.22 195.564C1408.22 191.056 1410.23 157.231 1403.63 156.447Z" fill="#F0E2CD"/>
<path d="M1144.11 114.729L1282.22 114.703C1282.43 128.245 1282.4 141.791 1282.14 155.332L1190.02 155.459C1189.64 164.399 1189.87 175.069 1189.85 184.147L1267.57 184.176C1267.66 197.231 1267.67 210.288 1267.59 223.344L1196.63 223.324C1193.84 223.361 1191.82 222.975 1190.22 224.59C1189.33 231.321 1189.8 244.606 1189.86 251.849L1282.17 251.836C1282.4 265.267 1282.39 278.7 1282.14 292.13L1144.11 292.157L1144.11 114.729Z" fill="#F0E2CD"/>
<path d="M538.613 114.716L684.805 114.767C684.941 128.281 684.938 141.796 684.798 155.309L633.892 155.495L633.848 240.85L633.812 292.081L588.429 292.12C587.6 247.535 588.261 200.143 588.401 155.394L538.734 155.446L538.613 114.716Z" fill="#F0E2CD"/>
<path d="M1268.48 327.255C1279.78 326.766 1307 326.667 1317.66 327.684C1322.87 330.956 1325.66 334.136 1329.2 339.073C1330.19 350.913 1329.64 378.713 1329.34 391.235C1325.14 396.47 1322.53 400.022 1316.29 402.9C1299.74 402.97 1283.18 402.942 1266.63 402.816C1262.08 399.588 1258.52 395.946 1255.1 391.564C1254.68 375.27 1254.79 355.25 1255.23 339.012C1258.61 332.961 1262.31 329.961 1268.48 327.255ZM1307.61 385.643C1310.22 382.326 1314.77 337.736 1299.34 344.211C1296.76 345.29 1280.06 344.916 1276.55 344.867C1273.69 348.847 1272.54 382.782 1278.4 385.039C1283.76 387.107 1300.29 385.574 1307.61 385.643Z" fill="#C78E46"/>
<path d="M575.816 327.148C593.079 327.296 611.679 326.437 628.888 327.281C637.65 327.711 642.648 332.916 647.588 339.406C648.526 350.475 648.013 378.977 647.654 390.526C646.032 392.654 643.662 395.179 641.833 397.233C639.433 399.619 637.47 400.857 634.693 402.76C616.621 403.469 594.134 402.916 575.724 402.908L575.816 327.148ZM628.034 363.631C631.236 337.504 614.178 345.069 595.305 344.958L595.162 385.713C602.337 385.785 622.181 386.837 627.241 384.034C628.668 377.198 627.265 369.9 628.034 363.631Z" fill="#C78E46"/>
<path d="M969.77 58.0124C976.056 57.5979 978.171 67.6412 980.163 72.7705C894.261 74.0005 803.721 71.8067 717.596 70.922C684.852 70.8837 652.11 70.5939 619.371 70.052C598.761 69.901 576.328 70.2969 556.007 68.8148C549.002 68.0003 543.581 67.8697 536.141 66.732C543.902 65.7086 558.482 63.4055 565.994 63.1631C584.717 62.5575 604.067 62.6154 622.855 62.2996L712.088 60.9032L969.77 58.0124Z" fill="#373B3F"/>
<path d="M832.475 441.63L980.155 441.221L974.032 455.663L690.591 452.26C639.496 449.864 589.177 452.408 536.838 448.604C563.205 443.492 576.724 443.63 603.597 443.575L660.841 442.979L832.475 441.63Z" fill="#373B3F"/>
<path d="M1374.42 327.36C1392.15 326.847 1414.43 326.718 1432.31 327.607C1437.73 327.877 1442.3 334.445 1445.24 338.637C1445.75 347.431 1445.41 357.881 1445.34 366.806C1441.46 373.054 1438.48 375.419 1431.88 378.335C1436.81 386.433 1442.45 394.721 1447.54 402.889L1437.24 402.911L1425.32 402.895L1409.77 378.951L1393.75 378.983C1393.61 386.968 1393.59 394.955 1393.67 402.94L1374.22 402.911C1374.18 381.253 1373.04 347.954 1374.42 327.36ZM1426.37 344.979C1416.4 344.38 1403.9 344.629 1393.77 344.833L1393.65 362.029C1400.69 362.072 1420.83 362.655 1426.08 361.031C1427.06 356.663 1426.69 349.599 1426.37 344.979Z" fill="#C78E46"/>
<path d="M1034.36 58.1659L1309.25 61.2933L1374.3 62.4302C1406.02 62.7199 1424.16 61.7299 1455.45 66.7883C1451.01 67.6975 1447.96 68.0688 1443.44 68.5071C1424.92 70.1263 1408.1 69.7248 1389.62 69.9606C1358.15 70.5376 1326.66 70.8535 1295.18 70.9082C1207.66 71.912 1115.42 73.6634 1028.11 72.8212L1034.36 58.1659Z" fill="#373B3F"/>
<path d="M1027.95 441.206C1113.88 441.131 1199.82 441.613 1285.75 442.653C1315.65 442.748 1345.54 443.023 1375.43 443.48C1394.07 443.587 1437.55 441.882 1453.52 448.406C1452.45 449.522 1451.65 449.14 1449.56 449.265C1413.05 452.364 1364.52 451.297 1327.12 451.955L1034.54 455.769L1027.95 441.206Z" fill="#373B3F"/>
<path d="M1073.88 327.159L1092.83 327.095C1092.66 336.104 1093.59 400.218 1091.7 402.964L1071.53 402.908C1059.83 386.817 1047.9 370.885 1035.77 355.115C1035.07 369.804 1035.58 388 1035.6 402.947L1016.19 402.877L1016.16 327.209L1036.92 327.211C1049.44 342.707 1061.73 358.389 1073.79 374.251C1074.24 359.193 1073.87 342.357 1073.88 327.159Z" fill="#C78E46"/>
<path d="M1151.8 327.214C1164.67 326.99 1185.82 326.599 1198.28 327.483C1203.23 330.596 1205.9 333.463 1209.3 338.133C1209.88 342.321 1209.79 346.923 1209.82 351.18C1204.01 351.273 1197.9 351.712 1192.17 350.578C1188.43 349.921 1189.87 344.668 1186.09 344.369C1180.26 343.907 1173.58 344.196 1167.8 344.094C1164.01 344.028 1157.15 344.536 1156.91 349.302C1156.69 356.811 1162.62 355.923 1167.58 356.505C1181.47 358.137 1206.63 351.063 1210.17 370.717C1211.37 377.411 1210.55 384.988 1210.13 391.557C1206.97 396.311 1203.43 399.625 1198.74 402.798C1183.48 403.444 1164.6 402.929 1149.08 402.834C1144.44 399.466 1141.79 397.022 1138.32 392.516L1138.21 379.469C1142.23 379.38 1156.63 378.414 1157.45 381.349C1159.67 389.264 1168.35 385.186 1176.38 386.136C1182.16 386.821 1196.05 386.754 1189.75 375.599C1177.77 367.455 1152.69 383.51 1138.31 360.904C1138.01 346.18 1134.87 332.845 1151.8 327.214Z" fill="#C78E46"/>
<path d="M907.323 327.31C927.366 326.57 951.393 327.112 971.582 327.24C971.713 332.966 971.599 339.09 971.591 344.852L926.958 344.871L926.909 356.75L963.508 356.841L963.622 373.291C954.356 373.176 945.098 373.185 935.84 373.318C932.983 373.221 929.88 372.698 927.725 374.408C926.109 376.977 926.803 382.471 926.933 385.752L971.607 385.729L971.689 402.927L907.192 402.914C907.16 378.002 906.801 352.145 907.323 327.31Z" fill="#C78E46"/>
<path d="M691.993 327.202C713.374 327.055 734.751 327.086 756.133 327.296L756.059 344.847L711.268 344.883L711.279 356.759C723.795 356.677 736.319 356.728 748.842 356.913L748.94 373.25C739.625 373.078 729.64 373.299 720.268 373.346C717.429 373.243 714.363 372.729 712.173 374.391C710.504 376.966 711.174 382.448 711.288 385.758L756.133 385.802L756.1 402.939L691.921 402.924L691.993 327.202Z" fill="#C78E46"/>
<path d="M800.554 327.205L864.87 327.104L864.78 344.889L819.902 344.888L819.911 358.901C829.936 358.845 847.08 358.263 856.518 359.074L856.469 375.64C844.297 375.388 832.124 375.364 819.951 375.569L819.886 402.927L800.578 402.949C801.125 378.241 800.537 352.067 800.554 327.205Z" fill="#C78E46"/>
<path d="M1008.41 58.0288L1016.23 58.1349L1009.39 76.2033L999.748 76.2384C998.132 74.3368 993.47 61.3039 992.286 58.1406L1008.41 58.0288Z" fill="#C78E46"/>
<path d="M999.405 437.912L1009.18 437.925C1010.99 442.079 1016.36 451.558 1014.51 455.309L1011.15 455.492C1004.93 455.577 998.654 455.537 992.433 455.544C994.842 449.699 997.169 443.822 999.405 437.912Z" fill="#C78E46"/>
<defs>
<linearGradient id="paint0_linear_2_502" x1="231.5" y1="303" x2="231" y2="303" gradientUnits="userSpaceOnUse">
<stop stop-color="#D4C3AD"/>
<stop offset="1" stop-color="#F0E2CD"/>
</linearGradient>
</defs>
</svg>
